<?xml version="1.0" encoding="UTF-8" standalone="no"?>
<svg
   xmlns:dc="http://purl.org/dc/elements/1.1/"
   xmlns:cc="http://creativecommons.org/ns#"
   xmlns:rdf="http://www.w3.org/1999/02/22-rdf-syntax-ns#"
   xmlns:svg="http://www.w3.org/2000/svg"
   xmlns="http://www.w3.org/2000/svg"
   xmlns:sodipodi="http://sodipodi.sourceforge.net/DTD/sodipodi-0.dtd"
   xmlns:inkscape="http://www.inkscape.org/namespaces/inkscape"
   width="123"
   height="93"
   viewBox="0 0 123 93"
   version="1.1"
   id="svg14"
   sodipodi:docname="icono1.svg"
   inkscape:version="0.92.4 (5da689c313, 2019-01-14)">
  <metadata
     id="metadata18">
    <rdf:RDF>
      <cc:Work
         rdf:about="">
        <dc:format>image/svg+xml</dc:format>
        <dc:type
           rdf:resource="http://purl.org/dc/dcmitype/StillImage" />
      </cc:Work>
    </rdf:RDF>
  </metadata>
  <sodipodi:namedview
     pagecolor="#ffffff"
     bordercolor="#666666"
     borderopacity="1"
     objecttolerance="10"
     gridtolerance="10"
     guidetolerance="10"
     inkscape:pageopacity="0"
     inkscape:pageshadow="2"
     inkscape:window-width="1526"
     inkscape:window-height="877"
     id="namedview16"
     showgrid="false"
     inkscape:zoom="2.5376344"
     inkscape:cx="61.5"
     inkscape:cy="93.788136"
     inkscape:window-x="66"
     inkscape:window-y="-8"
     inkscape:window-maximized="1"
     inkscape:current-layer="svg14" />
  <defs
     id="defs5">
    <clipPath
       id="clip-Watch_38mm_1">
      <rect
         width="123"
         height="93"
         id="rect2" />
    </clipPath>
  </defs>
  <rect
     style="fill:#ffffff"
     y="0"
     x="0"
     id="rect7"
     height="93"
     width="123" />
  <g
     id="g840">
    <path
       id="Path_1"
       data-name="Path 1"
       d="m 79.054,37.526 v -18.6 C 79.054,8.491 69.811,0 58.447,0 47.083,0 37.838,8.491 37.838,18.928 v 18.6 H 23 V 93 H 95.54 V 37.526 Z m -37.919,-18.6 c 0,-8.638 7.765,-15.665 17.311,-15.665 9.546,0 17.311,7.028 17.311,15.665 v 18.6 H 41.135 Z M 92.247,89.737 H 26.299 V 83.211 H 92.247 Z M 26.299,79.947 V 40.79 h 65.948 v 39.157 z"
       inkscape:connector-curvature="0"
       style="fill:#222222;fill-opacity:0.99215686" />
    <path
       id="Path_2"
       data-name="Path 2"
       d="m 59.27,50.579 a 6.568,6.568 0 0 0 -6.595,6.523 v 9.791 a 6.595,6.595 0 1 0 13.189,0 v -9.791 a 6.568,6.568 0 0 0 -6.595,-6.523 z m 3.3,16.316 a 3.3,3.3 0 1 1 -6.6,0 v -9.793 a 3.3,3.3 0 1 1 6.6,0 z"
       inkscape:connector-curvature="0"
       style="fill:#222222;fill-opacity:1" />
  </g>
</svg>
