<?xml version="1.0" encoding="UTF-8" standalone="no"?>
<svg
   xmlns:dc="http://purl.org/dc/elements/1.1/"
   xmlns:cc="http://creativecommons.org/ns#"
   xmlns:rdf="http://www.w3.org/1999/02/22-rdf-syntax-ns#"
   xmlns:svg="http://www.w3.org/2000/svg"
   xmlns="http://www.w3.org/2000/svg"
   xmlns:sodipodi="http://sodipodi.sourceforge.net/DTD/sodipodi-0.dtd"
   xmlns:inkscape="http://www.inkscape.org/namespaces/inkscape"
   width="119.306"
   height="93"
   viewBox="0 0 119.306 93"
   version="1.1"
   id="svg15"
   sodipodi:docname="icono2.svg"
   inkscape:version="0.92.4 (5da689c313, 2019-01-14)">
  <metadata
     id="metadata21">
    <rdf:RDF>
      <cc:Work
         rdf:about="">
        <dc:format>image/svg+xml</dc:format>
        <dc:type
           rdf:resource="http://purl.org/dc/dcmitype/StillImage" />
      </cc:Work>
    </rdf:RDF>
  </metadata>
  <defs
     id="defs19" />
  <sodipodi:namedview
     pagecolor="#ffffff"
     bordercolor="#666666"
     borderopacity="1"
     objecttolerance="10"
     gridtolerance="10"
     guidetolerance="10"
     inkscape:pageopacity="0"
     inkscape:pageshadow="2"
     inkscape:window-width="1526"
     inkscape:window-height="877"
     id="namedview17"
     showgrid="false"
     inkscape:zoom="2.5376344"
     inkscape:cx="-13.052509"
     inkscape:cy="46.5"
     inkscape:window-x="66"
     inkscape:window-y="-8"
     inkscape:window-maximized="1"
     inkscape:current-layer="svg15" />
  <g
     transform="translate(0.008)"
     data-name="Group 3"
     id="Group_3"
     style="fill:#222222;fill-opacity:1">
    <g
       data-name="Group 2"
       id="Group_2"
       style="fill:#222222;fill-opacity:1">
      <path
         style="fill:#222222;fill-opacity:1"
         inkscape:connector-curvature="0"
         transform="translate(-15.88,-14.115)"
         d="m 134.857,61.916 a 2.1,2.1 0 0 0 -0.734,-0.735 h 0.126 L 57.272,14.4 a 2.094,2.094 0 0 0 -2.1,0 L 17.043,34.768 a 2.1,2.1 0 0 0 -0.188,3.654 l 77.081,47.919 a 2.094,2.094 0 0 0 2.138,0.042 L 134.12,64.794 a 2.1,2.1 0 0 0 0.737,-2.878 z M 95.174,82.187 22.221,36.761 56.119,18.6 128.945,62.933 Z"
         data-name="Path 3"
         id="Path_3" />
    </g>
  </g>
  <g
     transform="translate(0,30.613)"
     data-name="Group 5"
     id="Group_5"
     style="fill:#222222;fill-opacity:1">
    <g
       data-name="Group 4"
       id="Group_4"
       style="fill:#222222;fill-opacity:1">
      <path
         style="fill:#222222;fill-opacity:1"
         inkscape:connector-curvature="0"
         transform="translate(-15.872,-46.703)"
         d="m 134.9,74.123 a 2.1,2.1 0 0 0 -2.872,-0.777 h 0.126 l -36.959,21 -76.077,-47.314 a 2.114,2.114 0 1 0 -2.264,3.57 l 77.082,47.924 a 2.094,2.094 0 0 0 2.138,0.042 L 134.12,77 a 2.11,2.11 0 0 0 0.78,-2.877 z"
         data-name="Path 4"
         id="Path_4" />
    </g>
  </g>
  <g
     transform="translate(0,40.819)"
     data-name="Group 7"
     id="Group_7"
     style="fill:#222222;fill-opacity:1">
    <g
       data-name="Group 6"
       id="Group_6"
       style="fill:#222222;fill-opacity:1">
      <path
         style="fill:#222222;fill-opacity:1"
         inkscape:connector-curvature="0"
         transform="translate(-15.872,-57.568)"
         d="m 134.45,84.913 a 2.1,2.1 0 0 0 -2.3,-0.682 l -37.062,21 L 19.118,57.9 a 2.114,2.114 0 1 0 -2.264,3.57 l 77.082,47.966 a 2.094,2.094 0 0 0 2.138,0.042 L 134.12,87.869 a 2.1,2.1 0 0 0 0.331,-2.956 z"
         data-name="Path 5"
         id="Path_5" />
    </g>
  </g>
  <g
     transform="translate(47.271,24.201)"
     data-name="Group 9"
     id="Group_9"
     style="fill:#222222;fill-opacity:1">
    <g
       data-name="Group 8"
       id="Group_8"
       style="fill:#222222;fill-opacity:1">
      <path
         style="fill:#222222;fill-opacity:1"
         inkscape:connector-curvature="0"
         transform="translate(-66.193,-39.877)"
         d="m 90.642,40.662 a 2.094,2.094 0 0 0 -2.947,-0.323 2.144,2.144 0 0 0 -0.163,0.147 l -2.243,2.1 a 9.528,9.528 0 0 0 -2.348,-1.554 6.612,6.612 0 0 0 -3.585,-0.588 5.362,5.362 0 0 0 -2.912,1.323 4.58,4.58 0 0 0 -1.574,2.793 7.445,7.445 0 0 0 0.356,3.4 24.507,24.507 0 0 0 1.09,2.646 l -4.193,3.758 A 3.917,3.917 0 0 1 72,53.926 a 5.889,5.889 0 0 1 0.315,-3.006 4.549,4.549 0 0 0 0.293,-1.409 1.851,1.851 0 0 0 -0.545,-1.239 2.137,2.137 0 0 0 -3.081,-0.231 4.454,4.454 0 0 0 -1.321,2.5 7.215,7.215 0 0 0 0.376,3.738 10.759,10.759 0 0 0 1.279,2.531 l -2.411,2.1 a 2.1,2.1 0 0 0 1.4,3.675 l -0.042,0.063 a 2.093,2.093 0 0 0 1.409,-0.525 l 2.369,-2.1 a 12.38,12.38 0 0 0 2.621,1.89 6.281,6.281 0 0 0 7.463,-0.945 4.432,4.432 0 0 0 1.409,-2.349 A 6.8,6.8 0 0 0 83.429,55.511 17.66,17.66 0 0 0 81.8,51.5 v -0.126 l 3.476,-3.129 a 4.9,4.9 0 0 1 0,1.722 9.3,9.3 0 0 0 -0.176,1.933 2.1,2.1 0 0 0 0.587,1.365 2.451,2.451 0 0 0 1.614,0.924 2.094,2.094 0 0 0 1.53,-0.546 3.151,3.151 0 0 0 0.9,-1.575 5.788,5.788 0 0 0 0,-2.331 9.425,9.425 0 0 0 -0.991,-2.843 12.854,12.854 0 0 0 -0.713,-1.176 l 2.285,-2.1 a 2.1,2.1 0 0 0 0.33,-2.956 z M 77.763,57.747 a 2.094,2.094 0 0 1 -1.908,0.316 3.75,3.75 0 0 1 -1.174,-0.525 l 3.543,-3.086 a 7.384,7.384 0 0 1 0.356,1.2 2.227,2.227 0 0 1 -0.817,2.095 z m 2.075,-10.29 a 4.681,4.681 0 0 1 -0.188,-0.987 1.661,1.661 0 0 1 0.545,-1.533 1.8,1.8 0 0 1 1.785,-0.315 3.65,3.65 0 0 1 0.608,0.273 z"
         data-name="Path 6"
         id="Path_6" />
    </g>
  </g>
</svg>
