<?xml version="1.0" encoding="UTF-8" standalone="no"?>
<!-- Generator: Adobe Illustrator 16.0.0, SVG Export Plug-In . SVG Version: 6.00 Build 0)  -->

<svg
   xmlns:dc="http://purl.org/dc/elements/1.1/"
   xmlns:cc="http://creativecommons.org/ns#"
   xmlns:rdf="http://www.w3.org/1999/02/22-rdf-syntax-ns#"
   xmlns:svg="http://www.w3.org/2000/svg"
   xmlns="http://www.w3.org/2000/svg"
   xmlns:sodipodi="http://sodipodi.sourceforge.net/DTD/sodipodi-0.dtd"
   xmlns:inkscape="http://www.inkscape.org/namespaces/inkscape"
   version="1.1"
   id="Capa_1"
   x="0px"
   y="0px"
   width="477.156px"
   height="477.156px"
   viewBox="0 0 477.156 477.156"
   style="enable-background:new 0 0 477.156 477.156;"
   xml:space="preserve"
   sodipodi:docname="phone-call-auricular-symbol-in-black_icon-icons.com_56483.svg"
   inkscape:version="0.92.4 (5da689c313, 2019-01-14)"><metadata
   id="metadata41"><rdf:RDF><cc:Work
       rdf:about=""><dc:format>image/svg+xml</dc:format><dc:type
         rdf:resource="http://purl.org/dc/dcmitype/StillImage" /></cc:Work></rdf:RDF></metadata><defs
   id="defs39" /><sodipodi:namedview
   pagecolor="#ffffff"
   bordercolor="#666666"
   borderopacity="1"
   objecttolerance="10"
   gridtolerance="10"
   guidetolerance="10"
   inkscape:pageopacity="0"
   inkscape:pageshadow="2"
   inkscape:window-width="1600"
   inkscape:window-height="837"
   id="namedview37"
   showgrid="false"
   inkscape:zoom="0.49459715"
   inkscape:cx="238.578"
   inkscape:cy="238.578"
   inkscape:window-x="-8"
   inkscape:window-y="-8"
   inkscape:window-maximized="1"
   inkscape:current-layer="Capa_1" />
<g
   id="g4"
   style="fill:#ffffff">
	<path
   d="M475.009,380.316l-2.375-7.156c-5.625-16.719-24.062-34.156-41-38.75l-62.688-17.125c-17-4.625-41.25,1.594-53.688,14.031   l-22.688,22.688c-82.453-22.28-147.109-86.938-169.359-169.375L145.9,161.94c12.438-12.438,18.656-36.656,14.031-53.656   l-17.094-62.719c-4.625-16.969-22.094-35.406-38.781-40.969L96.9,2.19c-16.719-5.563-40.563,0.063-53,12.5L9.962,48.659   C3.899,54.69,0.024,71.94,0.024,72.003c-1.187,107.75,41.063,211.562,117.281,287.781   c76.031,76.031,179.454,118.219,286.891,117.313c0.562,0,18.312-3.813,24.375-9.845l33.938-33.938   C474.946,420.878,480.571,397.035,475.009,380.316z"
   id="path2"
   style="fill:#ffffff" />
</g>
<g
   id="g6">
</g>
<g
   id="g8">
</g>
<g
   id="g10">
</g>
<g
   id="g12">
</g>
<g
   id="g14">
</g>
<g
   id="g16">
</g>
<g
   id="g18">
</g>
<g
   id="g20">
</g>
<g
   id="g22">
</g>
<g
   id="g24">
</g>
<g
   id="g26">
</g>
<g
   id="g28">
</g>
<g
   id="g30">
</g>
<g
   id="g32">
</g>
<g
   id="g34">
</g>
</svg>