<?xml version="1.0" encoding="UTF-8" standalone="no"?>
<svg
   xmlns:dc="http://purl.org/dc/elements/1.1/"
   xmlns:cc="http://creativecommons.org/ns#"
   xmlns:rdf="http://www.w3.org/1999/02/22-rdf-syntax-ns#"
   xmlns:svg="http://www.w3.org/2000/svg"
   xmlns="http://www.w3.org/2000/svg"
   xmlns:sodipodi="http://sodipodi.sourceforge.net/DTD/sodipodi-0.dtd"
   xmlns:inkscape="http://www.inkscape.org/namespaces/inkscape"
   enable-background="new 0 0 32 32"
   version="1.1"
   viewBox="0 0 32 32"
   xml:space="preserve"
   id="svg15"
   sodipodi:docname="social_media_logo_twitter_icon-icons.com_59061.svg"
   inkscape:version="0.92.4 (5da689c313, 2019-01-14)"><metadata
     id="metadata21"><rdf:RDF><cc:Work
         rdf:about=""><dc:format>image/svg+xml</dc:format><dc:type
           rdf:resource="http://purl.org/dc/dcmitype/StillImage" /></cc:Work></rdf:RDF></metadata><defs
     id="defs19" /><sodipodi:namedview
     pagecolor="#ffffff"
     bordercolor="#666666"
     borderopacity="1"
     objecttolerance="10"
     gridtolerance="10"
     guidetolerance="10"
     inkscape:pageopacity="0"
     inkscape:pageshadow="2"
     inkscape:window-width="1600"
     inkscape:window-height="837"
     id="namedview17"
     showgrid="false"
     inkscape:zoom="14.75"
     inkscape:cx="-40.275202"
     inkscape:cy="30.917817"
     inkscape:window-x="-8"
     inkscape:window-y="-8"
     inkscape:window-maximized="1"
     inkscape:current-layer="svg15" /><g
     id="Layer_6" /><g
     id="Official_copy_3"
     transform="translate(-52.881356,-12.745762)"><path
       d="m 18.049,10.261 c -1.283,0.467 -2.093,1.671 -2.001,2.988 l 0.031,0.508 -0.513,-0.062 c -1.868,-0.239 -3.5,-1.048 -4.885,-2.407 L 10.004,10.614 9.83,11.112 c -0.369,1.11 -0.133,2.283 0.636,3.072 0.41,0.436 0.318,0.498 -0.39,0.239 C 9.83,14.34 9.614,14.278 9.594,14.309 c -0.072,0.073 0.174,1.017 0.369,1.391 0.267,0.519 0.811,1.027 1.406,1.328 l 0.503,0.239 -0.595,0.01 c -0.575,0 -0.595,0.01 -0.533,0.229 0.205,0.674 1.016,1.391 1.919,1.702 l 0.636,0.217 -0.554,0.332 c -0.821,0.478 -1.786,0.747 -2.751,0.768 -0.462,0.01 -0.842,0.052 -0.842,0.083 0,0.103 1.252,0.684 1.981,0.913 2.186,0.674 4.783,0.384 6.733,-0.768 1.386,-0.82 2.771,-2.449 3.418,-4.027 0.349,-0.84 0.698,-2.376 0.698,-3.112 0,-0.478 0.031,-0.54 0.605,-1.11 0.339,-0.332 0.657,-0.695 0.719,-0.799 0.103,-0.197 0.092,-0.197 -0.431,-0.021 -0.872,0.312 -0.996,0.27 -0.564,-0.197 0.318,-0.332 0.698,-0.934 0.698,-1.11 0,-0.031 -0.154,0.021 -0.329,0.114 -0.185,0.104 -0.595,0.26 -0.903,0.353 l -0.554,0.177 -0.503,-0.343 c -0.277,-0.187 -0.667,-0.394 -0.872,-0.456 -0.526,-0.148 -1.326,-0.127 -1.799,0.039 z"
       id="path12"
       inkscape:connector-curvature="0"
       style="fill:#ffffff" /></g></svg>